0
SECTION
2
HEADER
9
$INSUNITS
70
4
9
$ACADVER
1
AC1014
9
$HANDSEED
5
FFFF
0
ENDSEC
0
SECTION
2
TABLES
0
TABLE
2
VPORT
5
8
100
AcDbSymbolTable
0
ENDTAB
0
TABLE
2
LTYPE
5
5
100
AcDbSymbolTable
0
LTYPE
5
14
100
AcDbSymbolTableRecord
100
AcDbLinetypeTableRecord
2
BYBLOCK
70
0
0
LTYPE
5
15
100
AcDbSymbolTableRecord
100
AcDbLinetypeTableRecord
2
BYLAYER
70
0
0
ENDTAB
0
TABLE
2
LAYER
5
2
100
AcDbSymbolTable
70
2
0
LAYER
5
50
100
AcDbSymbolTableRecord
100
AcDbLayerTableRecord
2
0
70
0
6
CONTINUOUS
0
ENDTAB
0
TABLE
2
STYLE
5
3
100
AcDbSymbolTable
70
1
0
STYLE
5
11
100
AcDbSymbolTableRecord
100
AcDbTextStyleTableRecord
2
STANDARD
70
0
0
ENDTAB
0
TABLE
2
VIEW
5
6
100
AcDbSymbolTable
70
0
0
ENDTAB
0
TABLE
2
UCS
5
7
100
AcDbSymbolTable
70
0
0
ENDTAB
0
TABLE
2
APPID
5
9
100
AcDbSymbolTable
70
2
0
APPID
5
12
100
AcDbSymbolTableRecord
100
AcDbRegAppTableRecord
2
ACAD
70
0
0
ENDTAB
0
TABLE
2
DIMSTYLE
5
A
100
AcDbSymbolTable
70
1
0
ENDTAB
0
TABLE
2
BLOCK_RECORD
5
1
100
AcDbSymbolTable
70
1
0
BLOCK_RECORD
5
1F
100
AcDbSymbolTableRecord
100
AcDbBlockTableRecord
2
*MODEL_SPACE
0
BLOCK_RECORD
5
1B
100
AcDbSymbolTableRecord
100
AcDbBlockTableRecord
2
*PAPER_SPACE
0
ENDTAB
0
ENDSEC
0
SECTION
2
BLOCKS
0
BLOCK
5
20
100
AcDbEntity
100
AcDbBlockBegin
2
*MODEL_SPACE
0
ENDBLK
5
21
100
AcDbEntity
100
AcDbBlockEnd
0
BLOCK
5
1C
100
AcDbEntity
100
AcDbBlockBegin
2
*PAPER_SPACE
0
ENDBLK
5
1D
100
AcDbEntity
100
AcDbBlockEnd
0
ENDSEC
0
SECTION
2
ENTITIES
0
LWPOLYLINE
5
100
100
AcDbEntity
8
0
100
AcDbPolyline
90
10
70
1
43
0.0
10
138.56406460551028
20
-239.99999999999997
10
277.12812921102039
20
6.4433416983023e-14
10
138.56406460551014
20
240.00000000000003
10
37.499999999999915
20
240.00000000000003
10
37.499999999999922
20
237
10
-37.500000000000064
20
237
10
-37.500000000000107
20
240
10
-138.56406460551025
20
240
10
-277.12812921102034
20
3.9850314498152316e-14
10
-138.56406460551028
20
-239.99999999999997
0
LWPOLYLINE
5
101
100
AcDbEntity
8
0
100
AcDbPolyline
90
10
70
1
43
0.0
10
-103.92304845413261
20
-180.00000000000006
10
103.92304845413273
20
-180.00000000000003
10
207.84609690826531
20
-2.0937984977405553e-15
10
103.92304845413263
20
180.00000000000006
10
37.499999999999993
20
180.00000000000006
10
37.499999999999986
20
183.00000000000009
10
-37.500000000000021
20
183.00000000000009
10
-37.500000000000014
20
180.00000000000006
10
-103.92304845413265
20
180.00000000000006
10
-207.84609690826534
20
1.3090565707149759e-13
0
LINE
5
102
100
AcDbEntity
8
0
100
AcDbLine
10
-186.49802069691196
20
150.97595264191639
30
0
11
-223.99802069691196
21
86.024047358083507
31
0
0
LINE
5
103
100
AcDbEntity
8
0
100
AcDbLine
10
-223.99802069691196
20
86.024047358083507
30
0
11
-226.59609690826534
21
87.524047358083493
31
0
0
LINE
5
104
100
AcDbEntity
8
0
100
AcDbLine
10
-189.09609690826531
20
152.47595264191642
30
0
11
-186.49802069691196
21
150.97595264191639
31
0
0
LINE
5
105
100
AcDbEntity
8
0
100
AcDbLine
10
-139.73264889255233
20
123.97595264191649
30
0
11
-177.23264889255233
21
59.024047358083592
31
0
0
LINE
5
106
100
AcDbEntity
8
0
100
AcDbLine
10
-177.23264889255233
20
59.024047358083592
30
0
11
-174.63457268119902
21
57.524047358083585
31
0
0
LINE
5
107
100
AcDbEntity
8
0
100
AcDbLine
10
-137.13457268119902
20
122.47595264191648
30
0
11
-139.73264889255233
21
123.97595264191649
31
0
0
LINE
5
108
100
AcDbEntity
8
0
100
AcDbLine
10
-223.99802069691194
20
-86.02404735808355
30
0
11
-186.49802069691194
21
-150.97595264191648
31
0
0
LINE
5
109
100
AcDbEntity
8
0
100
AcDbLine
10
-186.49802069691194
20
-150.97595264191648
30
0
11
-189.09609690826528
21
-152.47595264191648
31
0
0
LINE
5
110
100
AcDbEntity
8
0
100
AcDbLine
10
-226.59609690826528
20
-87.524047358083578
30
0
11
-223.99802069691194
21
-86.02404735808355
31
0
0
LINE
5
111
100
AcDbEntity
8
0
100
AcDbLine
10
-177.23264889255236
20
-59.02404735808355
30
0
11
-139.73264889255236
21
-123.97595264191648
31
0
0
LINE
5
112
100
AcDbEntity
8
0
100
AcDbLine
10
-139.73264889255236
20
-123.97595264191648
30
0
11
-137.13457268119905
21
-122.47595264191646
31
0
0
LINE
5
113
100
AcDbEntity
8
0
100
AcDbLine
10
-174.63457268119902
20
-57.52404735808355
30
0
11
-177.23264889255236
21
-59.02404735808355
31
0
0
LINE
5
114
100
AcDbEntity
8
0
100
AcDbLine
10
-37.499999999999957
20
-237
30
0
11
37.500000000000036
21
-237
31
0
0
LINE
5
115
100
AcDbEntity
8
0
100
AcDbLine
10
37.500000000000036
20
-237
30
0
11
37.500000000000078
21
-240
31
0
0
LINE
5
116
100
AcDbEntity
8
0
100
AcDbLine
10
-37.499999999999943
20
-240.00000000000003
30
0
11
-37.499999999999957
21
-237
31
0
0
LINE
5
117
100
AcDbEntity
8
0
100
AcDbLine
10
-37.500000000000007
20
-183.00000000000009
30
0
11
37.5
21
-183.00000000000009
31
0
0
LINE
5
118
100
AcDbEntity
8
0
100
AcDbLine
10
37.5
20
-183.00000000000009
30
0
11
37.499999999999993
21
-180.00000000000006
31
0
0
LINE
5
119
100
AcDbEntity
8
0
100
AcDbLine
10
-37.500000000000014
20
-180.00000000000006
30
0
11
-37.500000000000007
21
-183.00000000000009
31
0
0
LINE
5
120
100
AcDbEntity
8
0
100
AcDbLine
10
186.49802069691191
20
-150.97595264191642
30
0
11
223.99802069691191
21
-86.024047358083564
31
0
0
LINE
5
121
100
AcDbEntity
8
0
100
AcDbLine
10
223.99802069691191
20
-86.024047358083564
30
0
11
226.59609690826528
21
-87.524047358083521
31
0
0
LINE
5
122
100
AcDbEntity
8
0
100
AcDbLine
10
189.09609690826528
20
-152.47595264191642
30
0
11
186.49802069691191
21
-150.97595264191642
31
0
0
LINE
5
123
100
AcDbEntity
8
0
100
AcDbLine
10
139.73264889255231
20
-123.97595264191651
30
0
11
177.23264889255233
21
-59.024047358083614
31
0
0
LINE
5
124
100
AcDbEntity
8
0
100
AcDbLine
10
177.23264889255233
20
-59.024047358083614
30
0
11
174.63457268119896
21
-57.524047358083621
31
0
0
LINE
5
125
100
AcDbEntity
8
0
100
AcDbLine
10
137.13457268119896
20
-122.47595264191651
30
0
11
139.73264889255231
21
-123.97595264191651
31
0
0
LINE
5
126
100
AcDbEntity
8
0
100
AcDbLine
10
223.99802069691196
20
86.024047358083436
30
0
11
186.49802069691205
21
150.97595264191636
31
0
0
LINE
5
127
100
AcDbEntity
8
0
100
AcDbLine
10
186.49802069691205
20
150.97595264191636
30
0
11
189.09609690826531
21
152.47595264191639
31
0
0
LINE
5
128
100
AcDbEntity
8
0
100
AcDbLine
10
226.59609690826531
20
87.524047358083479
30
0
11
223.99802069691196
21
86.024047358083436
31
0
0
LINE
5
129
100
AcDbEntity
8
0
100
AcDbLine
10
177.23264889255236
20
59.024047358083465
30
0
11
139.73264889255242
21
123.97595264191639
31
0
0
LINE
5
130
100
AcDbEntity
8
0
100
AcDbLine
10
139.73264889255242
20
123.97595264191639
30
0
11
137.1345726811991
21
122.47595264191639
31
0
0
LINE
5
131
100
AcDbEntity
8
0
100
AcDbLine
10
174.63457268119907
20
57.524047358083465
30
0
11
177.23264889255236
21
59.024047358083465
31
0
0
ENDSEC
0
SECTION
2
OBJECTS
0
DICTIONARY
5
C
100
AcDbDictionary
3
ACAD_GROUP
350
D
3
ACAD_MLINESTYLE
350
17
0
DICTIONARY
5
D
100
AcDbDictionary
0
DICTIONARY
5
1A
330
C
100
AcDbDictionary
0
DICTIONARY
5
17
100
AcDbDictionary
0
ENDSEC
0
EOF
